<svg xmlns="http://www.w3.org/2000/svg" version="1.1" xmlns:xlink="http://www.w3.org/1999/xlink" xmlns:svgjs="http://svgjs.dev/svgjs" width="2000" height="686" viewBox="0 0 2000 686"><g transform="matrix(1,0,0,1,-1.210795259671272,0.6758994973352515)"><svg viewBox="0 0 396 136" data-background-color="#883d1a" preserveAspectRatio="xMidYMid meet" height="686" width="2000" xmlns="http://www.w3.org/2000/svg" xmlns:xlink="http://www.w3.org/1999/xlink"><g id="tight-bounds" transform="matrix(1,0,0,1,0.2399567383149872,-0.1339975679848351)"><svg viewBox="0 0 395.5199999999999 136.26761752507724" height="136.26761752507724" width="395.5199999999999"><g><svg viewBox="0 0 395.5199999999999 136.26761752507724" height="136.26761752507724" width="395.5199999999999"><g transform="matrix(1,0,0,1,0,89.35123818413562)"><svg viewBox="0 0 395.5199999999999 46.91637934094161" height="46.91637934094161" width="395.5199999999999"><g id="textblocktransform"><svg viewBox="0 0 395.5199999999999 46.91637934094161" height="46.91637934094161" width="395.5199999999999" id="textblock"><g><svg viewBox="0 0 395.5199999999999 46.91637934094161" height="46.91637934094161" width="395.5199999999999"><g transform="matrix(1,0,0,1,0,0)"><svg width="395.5199999999999" viewBox="-0.9196565234591824 -26.6319578027595 356.10742807041106 42.24128577346546" height="46.91637934094161" data-palette-color="#ffffff"><path d="M21.489-14.242l-0.269-2.576-14.034 1.464 0.269 2.576 5.729-0.598 1.825 17.505 2.596-0.27-1.825-17.505zM8.898-17.745l7.479-0.78c1.638-0.171 3.145-0.08 4.523 0.273 1.377 0.346 2.576 0.891 3.599 1.635 1.016 0.745 1.835 1.652 2.455 2.72 0.615 1.075 0.988 2.243 1.119 3.503v0l1.541 14.77c0.131 1.26 0.007 2.479-0.373 3.658-0.386 1.18-1 2.239-1.84 3.178-0.847 0.94-1.909 1.721-3.185 2.343-1.276 0.622-2.732 1.019-4.37 1.19v0l-7.479 0.78c-1.631 0.17-3.135 0.082-4.512-0.264-1.383-0.345-2.583-0.89-3.599-1.635-1.016-0.745-1.835-1.655-2.456-2.73-0.621-1.075-0.998-2.242-1.13-3.502v0l-1.54-14.77c-0.131-1.26-0.004-2.48 0.383-3.659 0.387-1.173 1.001-2.229 1.841-3.168 0.84-0.939 1.902-1.72 3.184-2.343 1.275-0.629 2.728-1.028 4.36-1.199zM38.053-20.584l7.492-0.642c1.641-0.14 3.146-0.022 4.517 0.356 1.37 0.371 2.559 0.938 3.568 1.702 1.002 0.764 1.804 1.686 2.405 2.765 0.595 1.087 0.946 2.261 1.055 3.523v0l1.266 14.795c0.108 1.262-0.039 2.479-0.44 3.651-0.408 1.172-1.041 2.22-1.898 3.144-0.864 0.924-1.94 1.685-3.227 2.283-1.287 0.599-2.751 0.968-4.392 1.109v0l-7.492 0.642c-1.634 0.14-3.136 0.024-4.506-0.347-1.377-0.371-2.566-0.938-3.569-1.702-1.002-0.764-1.804-1.689-2.405-2.775-0.602-1.086-0.956-2.26-1.064-3.522v0l-1.267-14.796c-0.108-1.262 0.042-2.479 0.45-3.652 0.409-1.166 1.042-2.21 1.899-3.133 0.858-0.923 1.933-1.684 3.227-2.284 1.286-0.605 2.747-0.978 4.381-1.117zM47.705-6.316l0.482 1.284 0.514 6.008 2.581-0.221-0.538-6.277-1.048-2.159-2.856-0.769 2.56-1.514 0.57-2.257-0.231-2.7-0.464-2.018-1.779-1.905-2.47-0.129-9.067 0.776 1.722 20.116 2.601-0.222-0.694-8.101 6.327-0.542zM38.78-15.839l6.327-0.542 1.788 0.6 0.29 1.4 0.221 2.581-0.244 1.365-1.47 0.889-6.326 0.542zM67.256-22.885l7.503-0.503c1.643-0.11 3.146 0.036 4.509 0.439 1.363 0.396 2.542 0.986 3.536 1.768 0.988 0.782 1.772 1.719 2.354 2.809 0.575 1.097 0.904 2.278 0.989 3.542v0l0.993 14.816c0.085 1.264-0.084 2.478-0.508 3.642-0.43 1.165-1.082 2.201-1.956 3.108-0.881 0.908-1.971 1.649-3.269 2.224-1.298 0.575-2.768 0.917-4.411 1.027v0l-7.503 0.503c-1.636 0.11-3.136-0.034-4.499-0.43-1.37-0.396-2.548-0.985-3.536-1.767-0.988-0.782-1.772-1.722-2.354-2.819-0.581-1.097-0.914-2.277-0.999-3.541v0l-0.993-14.817c-0.085-1.264 0.088-2.478 0.517-3.643 0.43-1.158 1.083-2.191 1.957-3.098 0.875-0.907 1.964-1.648 3.269-2.223 1.297-0.581 2.764-0.927 4.401-1.037zM77.695-6.356l0.806 5.157 2.774-0.185-3.142-18.021-1.608-1.405-3.275-0.272-2.605 0.175-3.21 0.706-1.385 1.606-0.779 18.283 2.903-0.194 0.042-5.215 0.089-2.261 8.99-0.602zM73.333-18.492l2.309 0.206c0.201 1.309 0.414 2.545 0.639 3.706 0.225 1.161 0.447 2.385 0.667 3.674v0l-8.58 0.575 0.23-7.482c0.456-0.077 0.848-0.16 1.176-0.25 0.329-0.082 0.717-0.172 1.164-0.268v0zM100.663-2.721l1.59 0.383 1.606-0.538 1.398-1.51 3.904-18.18-2.85-0.353-3.569 17.654-0.53 0.216-0.667-0.118-5.232-17.267-2.833 0.628 5.675 17.716zM96.496-24.645l7.511-0.365c1.645-0.08 3.145 0.094 4.501 0.523 1.355 0.422 2.523 1.032 3.502 1.833 0.973 0.8 1.74 1.751 2.301 2.851 0.554 1.108 0.862 2.294 0.924 3.56v0l0.719 14.832c0.061 1.265-0.13 2.476-0.575 3.633-0.451 1.157-1.122 2.18-2.013 3.071-0.898 0.891-2.001 1.612-3.309 2.163-1.308 0.551-2.785 0.866-4.43 0.945v0l-7.511 0.364c-1.638 0.079-3.135-0.092-4.49-0.513-1.362-0.421-2.53-1.032-3.503-1.832-0.973-0.8-1.74-1.754-2.301-2.862-0.561-1.107-0.872-2.294-0.934-3.559v0l-0.719-14.833c-0.061-1.265 0.134-2.476 0.585-3.632 0.452-1.15 1.123-2.17 2.014-3.061 0.891-0.891 1.994-1.612 3.309-2.163 1.308-0.557 2.781-0.876 4.419-0.955zM137.83-3.827l-0.078-2.589-9.736 0.292-0.186-6.197 8.157-0.245-0.077-2.558-8.156 0.244-0.188-6.247 9.396-0.282-0.077-2.589-11.935 0.358 0.605 20.181zM125.764-25.865l7.516-0.226c1.646-0.049 3.143 0.153 4.49 0.606 1.347 0.446 2.503 1.079 3.469 1.897 0.958 0.818 1.708 1.783 2.247 2.894 0.534 1.118 0.82 2.31 0.858 3.576v0l0.445 14.843c0.038 1.266-0.176 2.473-0.642 3.621-0.472 1.148-1.162 2.159-2.07 3.033-0.914 0.874-2.03 1.575-3.348 2.102-1.318 0.526-2.8 0.814-4.446 0.863v0l-7.517 0.226c-1.639 0.049-3.133-0.15-4.48-0.596-1.354-0.446-2.51-1.079-3.468-1.897-0.958-0.818-1.708-1.786-2.248-2.904-0.54-1.118-0.83-2.309-0.868-3.576v0l-0.445-14.843c-0.038-1.266 0.179-2.473 0.652-3.621 0.473-1.141 1.163-2.149 2.07-3.023 0.908-0.874 2.024-1.575 3.349-2.102 1.318-0.533 2.797-0.824 4.436-0.873zM165.656-4.274l-0.03-2.59-7.49 0.086-0.202-17.599-2.59 0.03 0.232 20.189zM155.049-26.544l7.519-0.086c1.647-0.019 3.139 0.211 4.479 0.688 1.339 0.471 2.483 1.125 3.432 1.961 0.943 0.836 1.674 1.814 2.194 2.935 0.513 1.128 0.777 2.325 0.792 3.591v0l0.17 14.849c0.015 1.267-0.222 2.469-0.708 3.608-0.494 1.139-1.202 2.137-2.126 2.995-0.93 0.857-2.059 1.537-3.387 2.039-1.328 0.502-2.815 0.762-4.461 0.781v0l-7.52 0.087c-1.64 0.019-3.129-0.207-4.468-0.679-1.346-0.471-2.49-1.125-3.432-1.96-0.943-0.836-1.674-1.818-2.194-2.945-0.52-1.127-0.787-2.324-0.802-3.591v0l-0.171-14.849c-0.015-1.267 0.225-2.469 0.719-3.609 0.494-1.132 1.202-2.127 2.126-2.985 0.924-0.857 2.052-1.537 3.387-2.039 1.328-0.509 2.811-0.772 4.451-0.791zM203.804-21.7l0.03-2.59-14.109-0.164-0.03 2.59 5.759 0.067-0.204 17.599 2.61 0.03 0.204-17.599zM191.7-26.631l7.52 0.088c1.647 0.019 3.134 0.283 4.461 0.791 1.328 0.502 2.456 1.182 3.386 2.04 0.923 0.857 1.632 1.852 2.126 2.985 0.487 1.139 0.723 2.342 0.708 3.608v0l-0.173 14.849c-0.015 1.267-0.279 2.464-0.791 3.591-0.52 1.127-1.251 2.109-2.195 2.945-0.95 0.836-2.094 1.489-3.433 1.96-1.339 0.471-2.832 0.697-4.478 0.678v0l-7.519-0.087c-1.64-0.019-3.124-0.28-4.452-0.782-1.334-0.502-2.463-1.182-3.386-2.039-0.923-0.857-1.632-1.856-2.125-2.995-0.493-1.139-0.733-2.342-0.719-3.609v0l0.173-14.849c0.015-1.267 0.282-2.464 0.802-3.591 0.52-1.121 1.251-2.099 2.194-2.935 0.943-0.836 2.087-1.489 3.433-1.96 1.339-0.478 2.828-0.707 4.468-0.688zM231.71-3.368l0.077-2.589-9.735-0.293 0.186-6.197 8.157 0.245 0.077-2.559-8.156-0.245 0.188-6.247 9.395 0.283 0.078-2.589-11.934-0.36-0.608 20.181zM220.989-26.091l7.516 0.226c1.646 0.05 3.128 0.341 4.446 0.874 1.318 0.527 2.434 1.227 3.348 2.102 0.907 0.874 1.597 1.882 2.07 3.024 0.466 1.148 0.679 2.355 0.641 3.621v0l-0.447 14.843c-0.038 1.266-0.324 2.458-0.858 3.576-0.541 1.118-1.29 2.085-2.248 2.903-0.965 0.818-2.121 1.45-3.469 1.897-1.347 0.446-2.844 0.645-4.49 0.595v0l-7.516-0.226c-1.639-0.049-3.118-0.337-4.436-0.864-1.325-0.527-2.441-1.227-3.348-2.102-0.907-0.874-1.597-1.886-2.07-3.034-0.472-1.148-0.689-2.355-0.651-3.621v0l0.447-14.843c0.038-1.266 0.327-2.458 0.868-3.576 0.54-1.111 1.29-2.075 2.248-2.893 0.958-0.818 2.115-1.45 3.468-1.897 1.348-0.453 2.841-0.655 4.481-0.605zM250.262-25.01l7.511 0.365c1.645 0.08 3.121 0.399 4.429 0.956 1.308 0.551 2.411 1.272 3.309 2.163 0.891 0.891 1.562 1.911 2.013 3.062 0.444 1.156 0.636 2.367 0.575 3.632v0l-0.722 14.832c-0.062 1.265-0.369 2.452-0.924 3.56-0.561 1.107-1.328 2.061-2.301 2.861-0.98 0.8-2.148 1.411-3.503 1.832-1.355 0.421-2.855 0.592-4.501 0.513v0l-7.511-0.366c-1.638-0.08-3.111-0.395-4.419-0.945-1.315-0.551-2.418-1.272-3.309-2.164-0.891-0.891-1.562-1.915-2.013-3.071-0.451-1.157-0.646-2.367-0.584-3.633v0l0.721-14.832c0.062-1.265 0.373-2.451 0.934-3.559 0.561-1.101 1.328-2.051 2.301-2.852 0.973-0.8 2.141-1.411 3.503-1.832 1.356-0.428 2.853-0.602 4.491-0.522zM254.569-20.516l-0.727-1.727-1.32-0.455-3.196-0.155-2.064 0.24-1.634 1.482-0.888 18.269 2.607 0.126 0.844-17.359c0.229-0.042 0.434-0.066 0.614-0.07 0.18-0.005 0.379-0.035 0.595-0.091v0l2.777 0.135c0.177 0.075 0.351 0.124 0.523 0.145 0.166 0.021 0.337 0.063 0.515 0.125v0l-0.503 10.338 2.607 0.127 0.503-10.338 1.059-0.169 2.807 0.137c0.19 0.076 0.384 0.125 0.583 0.148 0.192 0.023 0.394 0.066 0.605 0.13v0l-0.844 17.359 2.587 0.126 0.888-18.268-1.463-1.633-2.031-0.439-3.196-0.156-1.337 0.326zM279.51-23.389l7.503 0.504c1.643 0.11 3.113 0.456 4.41 1.038 1.298 0.575 2.387 1.316 3.269 2.224 0.875 0.907 1.527 1.94 1.957 3.098 0.423 1.164 0.592 2.378 0.507 3.642v0l-0.995 14.817c-0.085 1.264-0.415 2.444-0.99 3.542-0.581 1.097-1.366 2.036-2.354 2.818-0.995 0.782-2.173 1.371-3.537 1.767-1.363 0.396-2.866 0.539-4.508 0.429v0l-7.504-0.504c-1.636-0.11-3.103-0.452-4.401-1.027-1.304-0.575-2.394-1.317-3.268-2.224-0.875-0.907-1.527-1.943-1.956-3.108-0.43-1.165-0.602-2.379-0.517-3.643v0l0.995-14.817c0.085-1.264 0.418-2.444 1-3.541 0.581-1.09 1.366-2.026 2.353-2.808 0.988-0.782 2.167-1.371 3.536-1.767 1.363-0.403 2.863-0.549 4.5-0.44zM290.748-11.348l0.342-5.089-0.211-2.079-1.452-1.661-2.462-0.506-9.089-0.61-1.353 20.144 2.534 0.17 0.483-7.183 6.555 0.44 2.504-0.123 1.66-1.432zM288.152-11.793l-0.431 1.344-1.602 0.133-6.406-0.431 0.524-7.792 6.405 0.43 1.668 0.383 0.143 1.453zM317.123 1.966l0.221-2.581-7.463-0.64 1.504-17.536-2.581-0.221-1.725 20.116zM308.723-21.227l7.493 0.643c1.641 0.141 3.104 0.514 4.39 1.119 1.287 0.599 2.362 1.36 3.227 2.284 0.858 0.923 1.491 1.968 1.899 3.134 0.401 1.172 0.548 2.389 0.44 3.651v0l-1.269 14.795c-0.108 1.262-0.46 2.436-1.055 3.523-0.602 1.086-1.404 2.011-2.406 2.775-1.009 0.763-2.198 1.33-3.568 1.701-1.37 0.371-2.875 0.486-4.516 0.345v0l-7.493-0.642c-1.634-0.14-3.094-0.51-4.381-1.109-1.294-0.599-2.369-1.361-3.227-2.284-0.858-0.923-1.49-1.971-1.898-3.143-0.408-1.172-0.558-2.39-0.45-3.652v0l1.269-14.796c0.108-1.262 0.463-2.436 1.065-3.522 0.601-1.079 1.403-2.001 2.405-2.764 1.002-0.764 2.192-1.331 3.568-1.702 1.371-0.378 2.873-0.496 4.507-0.356zM346.905 4.927l0.269-2.576-9.687-1.011 0.644-6.167 8.115 0.848 0.266-2.547-8.116-0.847 0.649-6.216 9.35 0.976 0.268-2.576-11.875-1.24-2.096 20.081zM337.892-18.526l7.479 0.781c1.638 0.171 3.094 0.571 4.369 1.2 1.276 0.622 2.337 1.404 3.184 2.344 0.84 0.939 1.454 1.995 1.841 3.168 0.38 1.179 0.504 2.399 0.372 3.658v0l-1.542 14.77c-0.132 1.26-0.505 2.427-1.12 3.503-0.622 1.075-1.441 1.984-2.456 2.729-1.023 0.744-2.223 1.29-3.6 1.636-1.377 0.346-2.884 0.433-4.521 0.261v0l-7.48-0.78c-1.631-0.17-3.084-0.567-4.36-1.19-1.282-0.623-2.344-1.404-3.184-2.343-0.84-0.939-1.454-1.998-1.84-3.178-0.386-1.18-0.514-2.4-0.382-3.659v0l1.542-14.77c0.132-1.26 0.508-2.427 1.13-3.502 0.621-1.068 1.439-1.975 2.456-2.72 1.016-0.745 2.216-1.29 3.599-1.635 1.377-0.352 2.882-0.443 4.513-0.273z" opacity="1" transform="matrix(1,0,0,1,0,0)" fill="#ffffff" class="undefined-text-0" data-fill-palette-color="primary" id="text-0"></path></svg></g></svg></g></svg></g></svg></g><g transform="matrix(1,0,0,1,134.74542220322581,0)"><svg viewBox="0 0 126.0291555935483 75.91070177364352" height="75.91070177364352" width="126.0291555935483"><g><svg xmlns="http://www.w3.org/2000/svg" xmlns:xlink="http://www.w3.org/1999/xlink" version="1.1" x="0" y="0" viewBox="1.277 27.877 97.399 58.66600000000001" enable-background="new 0 0 100 100" xml:space="preserve" height="75.91070177364352" width="126.0291555935483" class="icon-icon-0" data-fill-palette-color="accent" id="icon-0"><g fill="#e3c81e" data-fill-palette-color="accent"><rect x="36.626" y="82.877" width="26.701" height="3.666" fill="#e3c81e" data-fill-palette-color="accent"></rect><polygon points="92.282,77.894 92.282,69.244 85.89,69.244 85.89,60.595 79.497,60.595 79.497,51.945 71.976,51.945 71.976,43.484    65.02,43.484 65.02,86.543 98.676,86.543 98.676,77.894  " fill="#e3c81e" data-fill-palette-color="accent"></polygon><polygon points="36.626,77.894 36.626,81.937 63.327,81.937 63.327,77.894 63.327,77.827 36.626,77.827  " fill="#e3c81e" data-fill-palette-color="accent"></polygon><rect x="36.626" y="72.777" width="26.701" height="4.109" fill="#e3c81e" data-fill-palette-color="accent"></rect><rect x="36.626" y="62.676" width="26.701" height="4.111" fill="#e3c81e" data-fill-palette-color="accent"></rect><polygon points="36.626,69.244 36.626,71.837 63.327,71.837 63.327,69.244 63.327,67.726 36.626,67.726  " fill="#e3c81e" data-fill-palette-color="accent"></polygon><polygon points="36.626,60.595 36.626,61.737 63.327,61.737 63.327,60.595 63.327,57.626 36.626,57.626  " fill="#e3c81e" data-fill-palette-color="accent"></polygon><rect x="36.626" y="52.577" width="26.701" height="4.11" fill="#e3c81e" data-fill-palette-color="accent"></rect><polygon points="27.978,51.945 20.456,51.945 20.456,60.595 14.063,60.595 14.063,69.244 7.67,69.244 7.67,77.894 1.277,77.894    1.277,86.543 34.935,86.543 34.935,43.484 27.978,43.484  " fill="#e3c81e" data-fill-palette-color="accent"></polygon><rect x="36.626" y="47.527" width="26.701" height="4.109" fill="#e3c81e" data-fill-palette-color="accent"></rect><rect x="36.626" y="43.484" width="26.701" height="3.103" fill="#e3c81e" data-fill-palette-color="accent"></rect><polygon points="46.216,33.895 53.737,33.895 53.737,42.355 65.02,42.355 65.02,27.877 34.935,27.877 34.935,42.355 46.216,42.355     " fill="#e3c81e" data-fill-palette-color="accent"></polygon></g></svg></g></svg></g><g></g></svg></g><defs></defs></svg><rect width="395.5199999999999" height="136.26761752507724" fill="none" stroke="none" visibility="hidden"></rect></g></svg></g></svg>