<svg xmlns="http://www.w3.org/2000/svg" version="1.1" xmlns:xlink="http://www.w3.org/1999/xlink" xmlns:svgjs="http://svgjs.dev/svgjs" width="128" height="128" viewBox="0 0 128 128"><g transform="matrix(0.8046875,0,0,0.8046875,12.760752631578946,32.352456026013)"><svg viewBox="0 0 95 58" data-background-color="#883d1a" preserveAspectRatio="xMidYMid meet" height="78" width="128" xmlns="http://www.w3.org/2000/svg" xmlns:xlink="http://www.w3.org/1999/xlink"><g id="tight-bounds" transform="matrix(1,0,0,1,-0.24049999999999727,0.2446311255762339)"><svg viewBox="0 0 95.481 57.51073774884753" height="57.51073774884753" width="95.481"><g><svg viewBox="0 0 95.481 57.51073774884753" height="57.51073774884753" width="95.481"><g><svg viewBox="0 0 95.481 57.51073774884753" height="57.51073774884753" width="95.481"><g id="textblocktransform"><svg viewBox="0 0 95.481 57.51073774884753" height="57.51073774884753" width="95.481" id="textblock"><g><svg viewBox="0 0 95.481 57.51073774884753" height="57.51073774884753" width="95.481"><g><svg viewBox="0 0 95.481 57.51073774884753" height="57.51073774884753" width="95.481"><g><svg xmlns="http://www.w3.org/2000/svg" xmlns:xlink="http://www.w3.org/1999/xlink" version="1.1" x="0" y="0" viewBox="1.277 27.877 97.399 58.66600000000001" enable-background="new 0 0 100 100" xml:space="preserve" height="57.51073774884753" width="95.481" class="icon-icon-0" data-fill-palette-color="accent" id="icon-0"><g fill="#e3c81e" data-fill-palette-color="accent"><rect x="36.626" y="82.877" width="26.701" height="3.666" fill="#e3c81e" data-fill-palette-color="accent"></rect><polygon points="92.282,77.894 92.282,69.244 85.89,69.244 85.89,60.595 79.497,60.595 79.497,51.945 71.976,51.945 71.976,43.484    65.02,43.484 65.02,86.543 98.676,86.543 98.676,77.894  " fill="#e3c81e" data-fill-palette-color="accent"></polygon><polygon points="36.626,77.894 36.626,81.937 63.327,81.937 63.327,77.894 63.327,77.827 36.626,77.827  " fill="#e3c81e" data-fill-palette-color="accent"></polygon><rect x="36.626" y="72.777" width="26.701" height="4.109" fill="#e3c81e" data-fill-palette-color="accent"></rect><rect x="36.626" y="62.676" width="26.701" height="4.111" fill="#e3c81e" data-fill-palette-color="accent"></rect><polygon points="36.626,69.244 36.626,71.837 63.327,71.837 63.327,69.244 63.327,67.726 36.626,67.726  " fill="#e3c81e" data-fill-palette-color="accent"></polygon><polygon points="36.626,60.595 36.626,61.737 63.327,61.737 63.327,60.595 63.327,57.626 36.626,57.626  " fill="#e3c81e" data-fill-palette-color="accent"></polygon><rect x="36.626" y="52.577" width="26.701" height="4.11" fill="#e3c81e" data-fill-palette-color="accent"></rect><polygon points="27.978,51.945 20.456,51.945 20.456,60.595 14.063,60.595 14.063,69.244 7.67,69.244 7.67,77.894 1.277,77.894    1.277,86.543 34.935,86.543 34.935,43.484 27.978,43.484  " fill="#e3c81e" data-fill-palette-color="accent"></polygon><rect x="36.626" y="47.527" width="26.701" height="4.109" fill="#e3c81e" data-fill-palette-color="accent"></rect><rect x="36.626" y="43.484" width="26.701" height="3.103" fill="#e3c81e" data-fill-palette-color="accent"></rect><polygon points="46.216,33.895 53.737,33.895 53.737,42.355 65.02,42.355 65.02,27.877 34.935,27.877 34.935,42.355 46.216,42.355     " fill="#e3c81e" data-fill-palette-color="accent"></polygon></g></svg></g></svg></g></svg></g></svg></g></svg></g><g></g></svg></g><defs></defs></svg><rect width="95.481" height="57.51073774884753" fill="none" stroke="none" visibility="hidden"></rect></g></svg></g></svg>